{
    "asset" : {
        "generator" : "Khronos glTF Blender I/O v1.6.16",
        "version" : "2.0"
    },
    "scene" : 0,
    "scenes" : [
        {
            "name" : "Scene",
            "nodes" : [
                0,
                1,
                20
            ]
        }
    ],
    "nodes" : [
        {
            "name" : "Light",
            "rotation" : [
                0.16907575726509094,
                0.7558803558349609,
                -0.27217137813568115,
                0.570947527885437
            ],
            "translation" : [
                4.076245307922363,
                5.903861999511719,
                -1.0054539442062378
            ]
        },
        {
            "name" : "Camera",
            "rotation" : [
                0.483536034822464,
                0.33687159419059753,
                -0.20870360732078552,
                0.7804827094078064
            ],
            "translation" : [
                7.358891487121582,
                4.958309173583984,
                6.925790786743164
            ]
        },
        {
            "name" : "Thumb.2",
            "rotation" : [
                0.014712621457874775,
                0.00010755420953501016,
                -0.006765997502952814,
                0.9998688697814941
            ],
            "scale" : [
                0.9999998211860657,
                1.0000001192092896,
                0.9999999403953552
            ],
            "translation" : [
                -1.611532063350296e-08,
                0.05451026186347008,
                -1.3635093054631398e-11
            ]
        },
        {
            "children" : [
                2
            ],
            "name" : "Thumb.1",
            "rotation" : [
                0.8239929676055908,
                0.5663812160491943,
                0.015390767715871334,
                0.0033235822338610888
            ],
            "scale" : [
                1.0000001192092896,
                1.0000001192092896,
                1
            ],
            "translation" : [
                0.06753258407115936,
                0.11017968505620956,
                -0.0014486080035567284
            ]
        },
        {
            "name" : "Point.3",
            "rotation" : [
                -0.004176203161478043,
                -0.00033578654984012246,
                -0.0015383206773549318,
                0.9999900460243225
            ],
            "scale" : [
                1,
                0.9999999403953552,
                1.0000001192092896
            ],
            "translation" : [
                -1.027938845155063e-09,
                0.08645518869161606,
                3.0400515438344655e-09
            ]
        },
        {
            "children" : [
                4
            ],
            "name" : "Point.2",
            "rotation" : [
                0.016070973128080368,
                -0.0016543956007808447,
                -0.0057893237099051476,
                0.9998527765274048
            ],
            "scale" : [
                0.9999999403953552,
                1,
                1
            ],
            "translation" : [
                3.478401178202972e-10,
                0.06332872062921524,
                8.398096662531884e-10
            ]
        },
        {
            "children" : [
                5
            ],
            "name" : "Point.1",
            "rotation" : [
                0.07564658671617508,
                0.7045471668243408,
                -0.05639021471142769,
                0.7033570408821106
            ],
            "scale" : [
                0.9999998807907104,
                0.9999997615814209,
                0.9999997615814209
            ],
            "translation" : [
                0.025190724059939384,
                0.24510006606578827,
                0.0005898476811125875
            ]
        },
        {
            "name" : "Middle.3",
            "rotation" : [
                0.002130223670974374,
                0.002908752067014575,
                -0.00748936552554369,
                0.9999655485153198
            ],
            "scale" : [
                0.9999998807907104,
                0.9999998211860657,
                1
            ],
            "translation" : [
                5.6317006613682e-10,
                0.08641957491636276,
                -2.0434647030054265e-10
            ]
        },
        {
            "children" : [
                7
            ],
            "name" : "Middle.2",
            "rotation" : [
                0.018200380727648735,
                -0.7092300653457642,
                0.005413226783275604,
                0.7047213315963745
            ],
            "scale" : [
                1,
                0.9999999403953552,
                0.9999999403953552
            ],
            "translation" : [
                -8.172751364554642e-09,
                0.06042364239692688,
                -8.267032614028835e-10
            ]
        },
        {
            "children" : [
                8
            ],
            "name" : "Middle.1",
            "rotation" : [
                0.22533464431762695,
                -0.9740939736366272,
                -0.019006429240107536,
                0.0019929457921534777
            ],
            "scale" : [
                0.9999999403953552,
                0.9999996423721313,
                1.000000238418579
            ],
            "translation" : [
                -0.03404204174876213,
                0.24185064435005188,
                0.0003257550997659564
            ]
        },
        {
            "name" : "Pinky.3",
            "rotation" : [
                -1.837179297581315e-09,
                -8.618371794000268e-09,
                1.9390085981285665e-08,
                1
            ],
            "scale" : [
                0.9999999403953552,
                0.9999998807907104,
                1
            ],
            "translation" : [
                2.5733470465638675e-08,
                0.08668768405914307,
                9.895303465512484e-10
            ]
        },
        {
            "children" : [
                10
            ],
            "name" : "Pinky.2",
            "rotation" : [
                -0.008174041286110878,
                2.3483915356337093e-05,
                0.01950155757367611,
                0.9997764229774475
            ],
            "scale" : [
                1,
                0.9999998211860657,
                0.9999999403953552
            ],
            "translation" : [
                1.71443854668496e-08,
                0.05984555929899216,
                -1.7041169586562432e-09
            ]
        },
        {
            "children" : [
                11
            ],
            "name" : "Pinky.1",
            "rotation" : [
                -0.6640289425849915,
                0.7476176619529724,
                0.0060888174921274185,
                0.00981805007904768
            ],
            "scale" : [
                0.9999998807907104,
                1,
                0.9999999403953552
            ],
            "translation" : [
                -0.0663149282336235,
                0.20237642526626587,
                -0.00036052014911547303
            ]
        },
        {
            "name" : "L_Point.3",
            "rotation" : [
                -4.001776687800884e-10,
                -2.7377078382073705e-09,
                3.9800504225695477e-08,
                1
            ],
            "scale" : [
                0.9999999403953552,
                0.9999998807907104,
                1
            ],
            "translation" : [
                -2.717133185115017e-10,
                0.08690770715475082,
                -1.3387762010097504e-09
            ]
        },
        {
            "children" : [
                13
            ],
            "name" : "L_Point.2",
            "rotation" : [
                -0.002542884787544608,
                8.902388799469918e-06,
                -0.005837238859385252,
                0.9999797344207764
            ],
            "scale" : [
                1,
                0.9999998807907104,
                0.9999998807907104
            ],
            "translation" : [
                7.464695528369703e-09,
                0.06341567635536194,
                -4.3230574675590105e-10
            ]
        },
        {
            "children" : [
                14
            ],
            "name" : "L_Point.1",
            "rotation" : [
                -0.6343374252319336,
                -0.7729675769805908,
                -0.009907424449920654,
                0.006262639537453651
            ],
            "scale" : [
                0.9999999403953552,
                0.9999995827674866,
                0.9999999403953552
            ],
            "translation" : [
                0.06373579055070877,
                0.20519214868545532,
                -0.002491940278559923
            ]
        },
        {
            "children" : [
                3,
                6,
                9,
                12,
                15
            ],
            "name" : "Palm",
            "rotation" : [
                -0.000957591226324439,
                -0.9999107718467712,
                -0.013324395753443241,
                0.00040642375824972987
            ],
            "scale" : [
                1,
                1.0000001192092896,
                0.9999998211860657
            ],
            "translation" : [
                0.0006839194684289396,
                1.1142807006835938,
                -0.0021132384426891804
            ]
        },
        {
            "children" : [
                16
            ],
            "name" : "Forearm",
            "rotation" : [
                0.0005715615698136389,
                -0.00047934477333910763,
                0.003608593950048089,
                0.9999933242797852
            ],
            "scale" : [
                0.9999999403953552,
                1.0000001192092896,
                1.0000001192092896
            ],
            "translation" : [
                -7.134939306041588e-10,
                1.0768264532089233,
                -2.1753736312302152e-10
            ]
        },
        {
            "children" : [
                17
            ],
            "name" : "Shoulder",
            "rotation" : [
                -0.0022107833065092564,
                0.7053422331809998,
                0.7088626027107239,
                0.0012093782424926758
            ],
            "scale" : [
                0.9995018243789673,
                0.9999999403953552,
                0.9995591640472412
            ],
            "translation" : [
                0.004254759289324284,
                0.011749216355383396,
                -2.1910624504089355
            ]
        },
        {
            "mesh" : 0,
            "name" : "Arm.001",
            "skin" : 0
        },
        {
            "children" : [
                19,
                18
            ],
            "name" : "Armature",
            "translation" : [
                0,
                -0.004961127415299416,
                1.7032220363616943
            ]
        }
    ],
    "materials" : [
        {
            "doubleSided" : true,
            "name" : "Material",
            "normalTexture" : {
                "index" : 0
            },
            "pbrMetallicRoughness" : {
                "baseColorTexture" : {
                    "index" : 1
                },
                "metallicFactor" : 0.3909091055393219,
                "roughnessFactor" : 0.4909090995788574
            }
        }
    ],
    "meshes" : [
        {
            "name" : "Cube.001",
            "primitives" : [
                {
                    "attributes" : {
                        "POSITION" : 0,
                        "NORMAL" : 1,
                        "TEXCOORD_0" : 2,
                        "JOINTS_0" : 3,
                        "WEIGHTS_0" : 4
                    },
                    "indices" : 5,
                    "material" : 0
                }
            ]
        }
    ],
    "textures" : [
        {
            "sampler" : 0,
            "source" : 0
        },
        {
            "sampler" : 0,
            "source" : 1
        }
    ],
    "images" : [
        {
            "bufferView" : 6,
            "mimeType" : "image/jpeg",
            "name" : "MetalPanelRectangular001_NRM_1K_METALNESS"
        },
        {
            "bufferView" : 7,
            "mimeType" : "image/png",
            "name" : "Material Base Color"
        }
    ],
    "skins" : [
        {
            "inverseBindMatrices" : 6,
            "joints" : [
                18,
                17,
                16,
                3,
                2,
                6,
                5,
                4,
                9,
                8,
                7,
                12,
                11,
                10,
                15,
                14,
                13
            ],
            "name" : "Armature"
        }
    ],
    "accessors" : [
        {
            "bufferView" : 0,
            "componentType" : 5126,
            "count" : 3031,
            "max" : [
                0.27409273386001587,
                0.13870424032211304,
                2.158086061477661
            ],
            "min" : [
                -0.27447012066841125,
                -0.13870424032211304,
                -0.525678813457489
            ],
            "type" : "VEC3"
        },
        {
            "bufferView" : 1,
            "componentType" : 5126,
            "count" : 3031,
            "type" : "VEC3"
        },
        {
            "bufferView" : 2,
            "componentType" : 5126,
            "count" : 3031,
            "type" : "VEC2"
        },
        {
            "bufferView" : 3,
            "componentType" : 5121,
            "count" : 3031,
            "type" : "VEC4"
        },
        {
            "bufferView" : 4,
            "componentType" : 5126,
            "count" : 3031,
            "type" : "VEC4"
        },
        {
            "bufferView" : 5,
            "componentType" : 5123,
            "count" : 4650,
            "type" : "SCALAR"
        },
        {
            "bufferView" : 8,
            "componentType" : 5126,
            "count" : 17,
            "type" : "MAT4"
        }
    ],
    "bufferViews" : [
        {
            "buffer" : 0,
            "byteLength" : 36372,
            "byteOffset" : 0
        },
        {
            "buffer" : 0,
            "byteLength" : 36372,
            "byteOffset" : 36372
        },
        {
            "buffer" : 0,
            "byteLength" : 24248,
            "byteOffset" : 72744
        },
        {
            "buffer" : 0,
            "byteLength" : 12124,
            "byteOffset" : 96992
        },
        {
            "buffer" : 0,
            "byteLength" : 48496,
            "byteOffset" : 109116
        },
        {
            "buffer" : 0,
            "byteLength" : 9300,
            "byteOffset" : 157612
        },
        {
            "buffer" : 0,
            "byteLength" : 266685,
            "byteOffset" : 166912
        },
        {
            "buffer" : 0,
            "byteLength" : 548251,
            "byteOffset" : 433600
        },
        {
            "buffer" : 0,
            "byteLength" : 1088,
            "byteOffset" : 981852
        }
    ],
    "samplers" : [
        {
            "magFilter" : 9729,
            "minFilter" : 9987
        }
    ],
    "buffers" : [
        {
            "byteLength" : 982940,
            "uri" : "data:application/octet-stream;base64,"
        }
    ]
}
